<svg xmlns="http://www.w3.org/2000/svg" width="900" height="1100" viewBox="0 0 900 1100">
<defs><linearGradient id="b" x1="0" y1="0" x2="1" y2="1"><stop stop-color="#e3d3c7"/><stop offset="1" stop-color="#b88c78"/></linearGradient></defs>
<rect width="900" height="1100" fill="url(#b)"/><circle cx="450" cy="370" r="175" fill="#d8a48a"/><path d="M272 410c-40-177 42-310 181-310 129 0 219 116 188 299-39-108-111-168-211-175-74 21-123 83-158 186z" fill="#4e2f28"/><path d="M240 405c-12 218 67 348 209 392-168-6-261-100-261-257 0-70 18-111 52-135z" fill="#4e2f28"/><path d="M660 401c20 211-50 346-210 396 177-12 267-108 267-265 0-60-18-104-57-131z" fill="#4e2f28"/><path d="M205 1100c27-330 127-468 245-468s219 138 245 468z" fill="#6c4f47"/>
</svg>